<svg width="24" height="24" viewBox="0 0 24 24" fill="none" xmlns="http://www.w3.org/2000/svg">
<path d="M15.5 22.7H15.4L15.3 22.6V22V19.5C15.3 18.8 15.2 18.2 14.9 17.7C17.2 17.3 19.7 16.1 19.7 11.6C19.7 10.4 19.3 9.29999 18.6 8.39999C18.8 7.79999 18.9 6.69999 18.4 5.29999L18.1 4.99999C18.1 4.99999 17.9 4.89999 17.7 4.89999C17.1 4.89999 16.2 5.09999 14.7 6.09999C13.9 5.99999 13 5.79999 12 5.79999C11 5.79999 10.1 5.89999 9.2 6.09999C7.8 5.19999 6.8 4.99999 6.2 4.99999C6 4.99999 5.9 5.09999 5.8 5.09999C5.7 5.09999 5.5 5.29999 5.5 5.39999C5 6.79999 5.1 7.89999 5.3 8.49999C4.6 9.39999 4.2 10.5 4.2 11.7C4.2 16.1 6.8 17.3 9 17.8C8.9 18 8.8 18.3 8.7 18.6C8.5 18.7 8.2 18.8 7.8 18.8C7.4 18.8 7 18.7 6.7 18.4L6.6 18.3C6.5 18.2 6.5 18.1 6.4 18.1L6.3 18L6.2 17.9C6.2 17.8 5.4 16.6 4 16.5C3.5 16.5 3.1 16.7 3 17C2.8 17.5 3.4 17.9 3.7 18.1C3.7 18.1 4.3 18.4 4.7 19.5C4.9 20.2 5.8 21.5 7.9 21.5H8.6V22.9L8.5 23C8.5 23 8.4 23 8.5 23C4 21.2 1 17 1 12.3C1 6.19999 5.9 1.29999 12 1.29999C18.1 1.29999 23 6.19999 23 12.3C23 17 20 21.2 15.5 22.7Z" fill="white"/>
</svg>
