<svg width="20" height="20" viewBox="0 0 20 20" fill="none" xmlns="http://www.w3.org/2000/svg">
<path d="M10 9.34375H18.0915C18.1808 9.84226 18.2255 10.3185 18.2255 10.7723C18.2255 12.3869 17.8869 13.8285 17.2098 15.0971C16.5328 16.3657 15.5674 17.3571 14.3136 18.0714C13.0599 18.7857 11.622 19.1429 10 19.1429C8.83186 19.1429 7.71951 18.9178 6.66296 18.4676C5.60642 18.0175 4.69496 17.4092 3.92859 16.6429C3.16222 15.8765 2.55396 14.965 2.10381 13.9085C1.65366 12.8519 1.42859 11.7396 1.42859 10.5714C1.42859 9.40327 1.65366 8.29092 2.10381 7.23437C2.55396 6.17783 3.16222 5.26637 3.92859 4.5C4.69496 3.73363 5.60642 3.12537 6.66296 2.67522C7.71951 2.22507 8.83186 2 10 2C12.2322 2 14.1481 2.74777 15.7478 4.2433L13.4152 6.48661C12.5 5.60119 11.3616 5.15848 10 5.15848C9.0402 5.15848 8.15292 5.4003 7.33819 5.88393C6.52346 6.36756 5.87799 7.02418 5.4018 7.85379C4.92561 8.68341 4.68752 9.58929 4.68752 10.5714C4.68752 11.5536 4.92561 12.4594 5.4018 13.2891C5.87799 14.1187 6.52346 14.7753 7.33819 15.2589C8.15292 15.7426 9.0402 15.9844 10 15.9844C10.6473 15.9844 11.2426 15.8951 11.7857 15.7165C12.3289 15.5379 12.7753 15.3147 13.125 15.0469C13.4747 14.779 13.7798 14.474 14.0402 14.1317C14.3006 13.7894 14.4922 13.4658 14.615 13.1607C14.7377 12.8557 14.8214 12.5655 14.8661 12.2902H10V9.34375Z" fill="white"/>
</svg>
